<svg version="1.1" id="logo123" xmlns="http://www.w3.org/2000/svg" xmlns:xlink="http://www.w3.org/1999/xlink" x="0px" y="0px"
	 viewBox="0 0 960 560" style="enable-background:new 0 0 960 560;" xml:space="preserve" >

	
<defs>
    <style type="text/css">
        .st0{fill:#fff;stroke:#FBB03B;stroke-miterlimit:10;stroke-width:5;pointer-events:all;}
        
        .st0{
        stroke-dasharray: 1500;
        stroke-dashoffset:0;
        -webkit-animation: dash 4s linear forwards;
        -moz-animation: dash 4s linear forwards;
        -o-animation: dash 4s linear forwards;
        animation: dash 4s linear forwards;
        }
        #logo123:hover .st0 {
            fill:#000;
       
        }
        @-webkit-keyframes dash {
        from{
                stroke-dashoffset: 2000;
        }
        to {
        
         stroke-dashoffset:0;
        }
        
        }
     
    </style>
</defs>  
    
    
<g>
	<path class="st0" d="M76,298c11.1,8.5,27.2,14.6,44.5,14.6c19,0,36.6-11.9,36.6-34c0-15-8.5-25.2-27.8-37.1
		c-22.8-14.3-40.1-32.7-40.1-59.9c0-43.9,32.8-71.5,72.5-71.5c21.9,0,36.3,6.5,43.9,11.6l-5.4,15.9c-3,8.8-11.2,13.5-19,10.7
		c-6.3-2.3-14-4-22.4-3.8c-21.6,0-33.9,14.6-33.9,29.9c0,15.7,11.1,24.8,29.5,37.1c24,14.6,38.3,33,38.3,60.9
		c0,45.9-31.9,74.2-76.1,74.2c-16.5,0-30.9-3.7-41.1-8.6c-6.5-3.2-9.6-11.9-6.9-19.5L76,298z"/>
</g>
<path class="st0" d="M280.1,148.6h-54.7l3.9-23.2c1.1-6.7,6.2-11.6,12.1-11.6h133.5l-2.6,15.7c-1.9,11-10.2,19-19.9,19h-38.3
	l-29,178.7c-1.5,9.2-8.4,15.9-16.5,15.9h-20.3L280.1,148.6z"/>
<path class="st0" d="M526,114.5h-11.7c-8,0-15.4,4.4-19.6,12.2l-28.5,52c-8.8,17-15.2,31.7-20.5,40.7h-0.6c-1.8-9-3.8-20.5-8.2-40.2
	l-12.1-50.9c-2-8.5-8.7-14.5-16.3-14.5c-11.5,0-19.7,13.1-16.1,25.8l30.4,107.2c0.4,1.4,0.5,2.8,0.2,4.2l-14,85.1
	c-0.6,3.7,1.8,7.3,5.1,7.3h11c9.7,0,18-8.1,19.8-19.2l10.7-65.6c1.1-6.8,3.5-13.3,7-18.9l69.8-110.7
	C536.5,122.9,532.7,114.5,526,114.5z"/>
<path class="st0" d="M575.4,113.9h3.8c9.4,0,16.4,9.9,14.7,20.6L568.7,288c-1.8,10.7,5.3,20.6,14.7,20.6h41.5
	c9.3,0,16.4,9.9,14.7,20.5v0c-1.3,8.2-7.5,14.2-14.7,14.2h-81.3c-9.4,0-16.4-9.9-14.7-20.6L560.7,128
	C562,119.8,568.2,113.9,575.4,113.9z"/>
<path class="st0" d="M771.9,241.2h-41.3c-10.2,0-18.9,8.4-20.8,20l-4.6,28.4c-1.7,10.4,5.2,20,14.2,20H764c9.1,0,15.9,9.6,14.2,20
	l-2.3,13.7h-96.3c-9.1,0-15.9-9.6-14.2-20l31.9-195.7c1.3-7.9,7.3-13.7,14.2-13.7H809l-4.3,26.3c-0.7,4.3-3.9,7.4-7.7,7.4h-33.5
	c-20.4,0-38,16.9-41.8,40.2v0c-1.7,10.4,5.1,20,14.2,20h48.2c2.8,0,4.9,2.9,4.3,6.1l-2.3,13.6C784.8,235.5,778.9,241.2,771.9,241.2z
	"/>
</svg>
